<svg width="41" height="41" viewBox="0 0 41 41" fill="none" xmlns="http://www.w3.org/2000/svg">
<path d="M20.5801 5.6001C18.028 5.6001 15.6322 6.21208 13.3926 7.43604C11.2311 8.60791 9.46029 10.2225 8.08008 12.2798V8.1001H5.58008V16.8501H14.3301V14.3501H9.79883C10.8926 12.4491 12.377 10.9386 14.252 9.81885C16.2051 8.67301 18.3145 8.1001 20.5801 8.1001C22.8457 8.1001 24.9551 8.67301 26.9082 9.81885C28.7832 10.9126 30.2676 12.397 31.3613 14.272C32.5072 16.2251 33.0801 18.3345 33.0801 20.6001C33.0801 22.8657 32.5072 24.9751 31.3613 26.9282C30.2676 28.8032 28.7832 30.2876 26.9082 31.3813C24.9551 32.5272 22.8457 33.1001 20.5801 33.1001C18.3145 33.1001 16.2051 32.5272 14.252 31.3813C12.377 30.2876 10.8926 28.8032 9.79883 26.9282C8.65299 24.9751 8.08008 22.8657 8.08008 20.6001H5.58008C5.58008 23.3084 6.27018 25.8345 7.65039 28.1782C8.95247 30.4438 10.7363 32.2407 13.002 33.5688C15.3457 34.923 17.8717 35.6001 20.5801 35.6001C23.2884 35.6001 25.8145 34.923 28.1582 33.5688C30.4238 32.2407 32.2207 30.4438 33.5488 28.1782C34.903 25.8345 35.5801 23.3084 35.5801 20.6001C35.5801 17.8918 34.903 15.3657 33.5488 13.022C32.2207 10.7563 30.4238 8.97249 28.1582 7.67041C25.8145 6.2902 23.2884 5.6001 20.5801 5.6001ZM19.3301 10.6001V21.8501H28.0801V19.3501H21.8301V10.6001H19.3301Z" fill="white"/>
</svg>
