<svg width="214" height="428" viewBox="0 0 214 428" fill="none" xmlns="http://www.w3.org/2000/svg">
<path fill-rule="evenodd" clip-rule="evenodd" d="M102.438 105.56C102.378 105.718 102.319 105.876 102.259 106.034C102.939 106.316 103.619 106.597 104.3 106.879C104.371 106.692 104.441 106.504 104.513 106.317C103.821 106.065 103.13 105.812 102.438 105.56ZM241.13 197.529C241.249 197.393 241.369 197.256 241.489 197.119C240.893 196.523 240.303 195.92 239.69 195.343C239.639 195.295 239.381 195.375 239.308 195.466C239.215 195.581 239.13 195.864 239.185 195.912C239.818 196.469 240.477 196.995 241.13 197.529ZM249.315 175.376C249.226 175.479 249.139 175.582 249.05 175.685C249.944 176.45 250.838 177.213 251.731 177.977C251.84 177.85 251.947 177.723 252.055 177.596L249.315 175.376ZM234.687 331.269L234.749 331.179C233.997 330.266 233.248 329.351 232.493 328.44C232.373 328.296 232.238 328.153 232.083 328.053C232.033 328.02 231.893 328.126 231.795 328.169C231.897 328.34 231.971 328.54 232.107 328.678C232.958 329.55 233.825 330.407 234.687 331.269ZM196.845 185.9C196.77 185.994 196.695 186.088 196.62 186.182C197.723 187.075 198.826 187.967 199.929 188.86C200.007 188.763 200.086 188.665 200.164 188.568C199.058 187.678 197.951 186.79 196.845 185.9ZM147.691 82.1349C147.757 81.9623 147.822 81.7902 147.887 81.6171C146.708 81.2606 145.53 80.9031 144.351 80.5461C144.292 80.7464 144.234 80.9466 144.176 81.1468C145.348 81.4766 146.52 81.806 147.691 82.1349ZM269.63 137.702C269.555 137.889 269.48 138.076 269.405 138.263C270.122 138.732 270.825 139.226 271.569 139.648C271.722 139.735 272.057 139.594 272.25 139.468C272.312 139.427 272.247 138.979 272.133 138.919C271.315 138.484 270.468 138.101 269.63 137.702ZM212.817 273.958C212.918 273.826 213.02 273.693 213.121 273.56C211.524 272.264 209.927 270.968 208.33 269.672C208.239 269.782 208.147 269.892 208.056 270.001C209.643 271.32 211.23 272.639 212.817 273.958ZM243.235 293.782C243.103 293.911 242.971 294.04 242.839 294.169L246.031 297.757C246.176 297.62 246.32 297.483 246.464 297.346C245.388 296.158 244.311 294.97 243.235 293.782ZM252.255 247.082C252.346 246.945 252.438 246.81 252.529 246.674C251.2 245.582 249.872 244.491 248.542 243.401C248.416 243.569 248.289 243.736 248.162 243.904C249.526 244.963 250.891 246.022 252.255 247.082ZM282.615 148.675L282.925 148.375C281.948 147.546 280.987 146.697 279.976 145.911C279.829 145.796 279.447 145.986 279.173 146.035C279.279 146.247 279.329 146.541 279.499 146.658C280.523 147.352 281.574 148.007 282.615 148.675ZM242.978 160.898C243.036 160.806 243.093 160.714 243.15 160.624C241.351 159.432 239.551 158.24 237.75 157.049C237.651 157.205 237.553 157.361 237.455 157.518C239.296 158.644 241.136 159.771 242.978 160.898ZM160.889 96.0746C160.927 95.9218 160.964 95.769 161.002 95.6166L152.765 91.7558C152.695 91.9042 152.627 92.0518 152.558 92.1989C155.335 93.4903 158.112 94.7823 160.889 96.0746ZM123.732 205.305C124.195 204.22 123.66 202.634 122.854 202.336C122.611 202.246 122.441 201.973 122.222 201.802C121.931 201.572 121.625 201.36 121.324 201.141C121.321 201.524 121.163 202.015 121.342 202.271C122.053 203.286 122.87 204.229 123.732 205.305ZM228.65 219.566C228.554 219.647 228.46 219.727 228.365 219.807L233.986 225.429C234.07 225.337 234.154 225.246 234.238 225.154L228.65 219.566ZM213.675 286.783C213.632 286.824 213.589 286.866 213.546 286.907L224.428 297.789C224.471 297.748 224.513 297.706 224.556 297.664L213.675 286.783ZM284.86 149.881L284.362 150.409C285.703 151.937 287.031 153.477 288.405 154.975C288.554 155.137 288.969 155.056 289.26 155.087C289.281 154.8 289.434 154.382 289.301 154.245C287.846 152.765 286.347 151.329 284.86 149.881ZM213.789 363.821C213.728 363.87 213.668 363.919 213.608 363.969C217.486 366.927 221.355 369.898 225.257 372.824C225.678 373.141 226.297 373.193 226.824 373.368C226.431 373.141 226.036 372.916 225.643 372.688C225.596 372.66 225.56 372.613 225.515 372.579C221.606 369.659 217.698 366.74 213.789 363.821ZM126.798 100.743C125.388 98.945 119.223 96.539 117.984 97.2122C120.877 98.3711 123.639 99.4781 126.798 100.743ZM126.449 93.6725C125.402 93.0068 123.822 94.9271 123.298 92.7358C123.095 92.8136 122.895 92.8952 122.69 92.9659C122.589 93.0006 122.473 93.0472 122.375 93.0292C122.177 92.9923 121.843 92.8285 121.819 92.8671C121.69 93.0858 121.495 93.4384 121.584 93.5811C121.897 94.0809 122.227 94.682 122.713 94.9407C124.409 95.8426 124.963 95.609 126.449 93.6725ZM285.826 305.369C285.994 305.149 286.163 304.928 286.331 304.708C283.121 302.114 279.91 299.521 276.7 296.928C276.62 297.022 276.54 297.116 276.46 297.209C279.582 299.93 282.704 302.649 285.826 305.369ZM236.203 218.655C236.352 218.516 236.501 218.378 236.649 218.238C232.413 213.716 228.176 209.194 223.94 204.672C228.062 209.301 231.662 214.416 236.203 218.655ZM238.999 185.566C238.888 185.672 238.778 185.777 238.667 185.882C238.951 186.218 239.225 186.563 239.52 186.888C241.561 189.125 243.583 191.378 245.666 193.574C246.041 193.968 246.95 194.469 247.137 194.321C247.916 193.703 247.668 192.98 246.942 192.363C244.286 190.106 241.646 187.833 238.999 185.566ZM116.793 64.4561C116.838 64.6726 116.883 64.8882 116.929 65.1047L135.891 60.6735C134.357 60.6528 132.823 60.8333 131.285 60.965C130.864 61.0015 129.931 61.611 130.364 60.334C130.185 60.291 129.986 60.1781 129.831 60.222C129.627 60.28 129.29 60.5641 129.296 60.5733C129.938 61.6057 128.967 61.3717 128.558 61.4766C124.639 62.4827 120.715 63.4663 116.793 64.4561ZM253.754 312.684C253.844 312.593 253.933 312.502 254.022 312.41L234.819 294.273C234.636 294.473 234.452 294.674 234.268 294.874C240.763 300.81 247.259 306.748 253.754 312.684ZM325.415 241.765C325.519 241.695 325.623 241.625 325.727 241.554C325.622 239.935 325.153 238.234 325.494 236.714C326.051 234.232 325.781 231.84 325.539 229.407C325.52 229.232 325.298 229.078 325.17 228.914C325.006 229.091 324.724 229.252 324.696 229.45C324.157 233.217 323.023 236.999 324.826 240.738C324.997 241.093 325.217 241.423 325.415 241.765ZM286.684 315.034C279.479 309.366 272.684 304.021 265.89 298.677C272.024 304.885 278.546 310.596 286.684 315.034ZM247.395 270.795C247.703 271.005 247.914 271.192 248.159 271.308C248.544 271.488 248.95 271.621 249.348 271.774C249.234 271.327 249.255 270.764 248.986 270.449C245.677 266.57 242.331 262.723 238.969 258.891C238.795 258.693 238.304 258.548 238.112 258.654C237.91 258.766 237.713 259.334 237.82 259.486C238.531 260.486 239.279 261.468 240.102 262.379C241.013 263.388 242.086 264.255 242.965 265.289C244.512 267.109 245.966 269.009 247.395 270.795ZM273.002 295.576C272.69 295.128 272.439 294.617 272.056 294.239C267.483 289.723 262.899 285.219 258.285 280.744C257.971 280.438 257.401 280.395 256.95 280.229C257.116 280.658 257.178 281.178 257.463 281.503C262.079 286.771 267.309 291.379 273.002 295.576ZM217.41 173.852C217.219 174.084 217.029 174.317 216.838 174.548C218.801 176.227 220.774 177.895 222.723 179.589C223.609 180.359 224.491 181.141 225.296 181.993C226.377 183.135 227.288 184.452 228.44 185.513C230.458 187.374 232.657 189.038 234.672 190.902C235.643 191.8 236.333 192.994 237.221 193.99C237.433 194.229 237.927 194.217 238.291 194.321C238.317 194.081 238.455 193.766 238.352 193.615C237.74 192.726 237.148 191.801 236.406 191.027C235.205 189.776 233.875 188.65 232.633 187.435C231.129 185.965 229.696 184.422 228.17 182.977C226.539 181.433 224.87 179.925 223.155 178.476C221.277 176.89 219.328 175.39 217.41 173.852ZM224.944 160.484C225.383 161.072 225.712 161.845 226.296 162.243C231.847 166.031 237.471 169.712 243.01 173.518C245.603 175.3 248.05 177.294 250.582 179.165C250.785 179.315 251.138 179.261 251.422 179.302C251.382 179.037 251.42 178.72 251.286 178.52C251.071 178.199 250.768 177.919 250.455 177.684C246.813 174.951 243.177 172.209 239.506 169.514C237.487 168.033 235.466 166.539 233.336 165.232C230.634 163.574 227.821 162.1 224.944 160.484ZM175.131 79.9733C183.277 85.9301 191.425 91.8868 199.571 97.844C192.821 89.959 184.307 84.5091 175.131 79.9733ZM224.287 168.575L223.927 169.064C224.267 169.374 224.572 169.74 224.954 169.985C226.699 171.111 228.541 172.103 230.213 173.326C236.522 177.944 242.775 182.636 249.063 187.281C249.269 187.433 249.633 187.373 249.923 187.413C249.863 187.115 249.909 186.702 249.728 186.54C247.731 184.753 245.824 182.83 243.65 181.283C238.953 177.941 234.13 174.773 229.324 171.584C227.696 170.504 225.97 169.574 224.287 168.575ZM288.116 324.595C276.237 316.817 265.509 307.575 254.794 298.318C264.755 308.533 275.419 317.854 288.116 324.595ZM225.306 172.853C225.835 173.529 226.002 173.916 226.296 174.09C228.995 175.686 230.503 178.635 233.662 179.895C236.024 180.837 237.891 183.053 239.92 184.77C240.349 185.132 240.522 185.795 240.814 186.32C242.753 185.113 242.165 188.613 244.008 188.057C244.39 187.942 245.198 189.587 245.96 190.247C246.387 190.617 247.121 190.632 247.717 190.807C247.687 190.318 247.846 189.674 247.594 189.369C246.857 188.481 245.999 187.676 245.114 186.927C239.041 181.784 232.565 177.204 225.306 172.853ZM258.387 318.726C258.483 318.619 258.579 318.512 258.676 318.405C257.517 317.391 256.325 316.414 255.206 315.358C248.112 308.653 241.054 301.909 233.921 295.246C233.123 294.501 231.927 294.181 230.915 293.664C230.808 293.855 230.701 294.047 230.595 294.238C239.183 303.169 248.564 311.198 258.387 318.726ZM309.595 160.8C288.609 141.61 266.61 123.743 241.886 109.431C266.297 124.15 288.117 142.253 309.595 160.8ZM310.934 177.131C311.038 177.028 311.141 176.925 311.244 176.822C310.421 175.363 309.604 173.899 308.765 172.449C308.695 172.33 308.435 172.336 308.327 172.223C306.867 170.689 305.417 169.146 303.969 167.6C303.491 167.09 303.024 166.57 302.559 166.047C301.713 165.092 300.94 164.059 300.014 163.189C298.815 162.063 297.503 161.054 296.224 160.013C295.114 159.109 294.001 158.205 292.85 157.354C292.285 156.936 291.643 156.613 291.01 156.298C290.809 156.197 290.404 156.157 290.31 156.269C290.177 156.429 290.141 156.818 290.248 157.001C290.442 157.332 290.763 157.592 291.046 157.864C292.764 159.507 294.507 161.124 296.199 162.794C297.289 163.869 298.273 165.051 299.362 166.126C300.942 167.688 302.572 169.198 304.183 170.728C306.432 172.863 308.683 174.996 310.934 177.131ZM220.431 313.079C220.37 313.132 220.308 313.184 220.247 313.237C220.97 314.302 221.587 315.459 222.433 316.415C226.555 321.073 231.3 325.074 235.972 329.155C237.75 330.709 239.283 332.539 241.007 334.159C242.05 335.139 243.185 336.554 244.389 336.674C245.497 336.785 246.098 337.23 246.743 337.794C247.348 338.325 247.676 339.187 248.305 339.672C249.053 340.249 249.989 340.581 250.847 341.016C251.067 341.128 251.293 341.227 251.517 341.331C251.51 341.019 251.631 340.582 251.471 340.417C250.813 339.736 250.08 339.124 249.354 338.51C244.497 334.403 239.567 330.38 234.791 326.18C229.926 321.902 225.212 317.454 220.431 313.079ZM243.614 292.207C247.149 298.304 271.777 320.505 280.652 323.291C280.182 322.916 279.884 322.671 279.58 322.435C273.525 317.749 267.333 313.228 261.456 308.328C256.015 303.794 250.526 299.261 246.03 293.699C245.553 293.109 244.675 292.844 243.614 292.207ZM211.355 286.719C223.049 300.679 237.736 315.019 253.355 326.894C239.267 313.418 224.435 299.23 211.355 286.719ZM251.597 335.955C244.745 329.878 237.849 324.047 231.286 317.862C224.671 311.629 218.387 305.047 211.958 298.618C211.842 298.734 211.728 298.851 211.612 298.968C213.381 304.013 244.943 333.244 251.597 335.955ZM325.378 221.152C325.483 222.067 325.588 222.982 325.732 224.243C326.305 223.019 326.685 222.206 327.018 221.495C326.461 221.382 325.892 221.264 325.321 221.148C326.9 220.43 327.311 219.582 326.123 217.716C325.851 218.928 325.602 220.038 325.378 221.152ZM114.534 201.464C114.244 201.106 113.953 200.75 113.665 200.392C113.389 200.049 113.141 199.679 112.831 199.369C112.583 199.12 112.091 198.707 111.998 198.775C111.094 199.42 110.487 199.76 109.888 198.323C109.625 197.694 108.581 197.322 107.822 196.989C106.804 196.54 107.048 196.18 107.711 195.619C107.917 195.445 107.899 195.005 107.983 194.687C107.758 194.727 107.504 194.855 107.314 194.792C106.483 194.513 105.448 194.396 104.891 193.824C102.792 191.672 100.985 189.224 98.8185 187.149C95.5672 184.035 91.9791 181.271 88.7594 178.126C82.3175 171.836 74.5849 166.882 69.253 159.451C67.0894 156.436 64.7524 153.466 63.1325 150.162C61.5683 146.972 60.7269 143.407 59.7486 139.955C58.1704 134.393 56.8675 128.763 56.9913 122.922C57.1564 115.148 57.8889 107.482 61.2662 100.304C62.6301 97.4067 63.7156 94.3706 65.2113 91.5479C66.2498 89.5872 67.4776 87.5259 69.1459 86.144C71.9958 83.7824 73.9104 80.7647 76.0116 77.866C82.9063 68.3559 91.9295 61.5863 102.605 56.8714C109.005 54.0443 115.579 51.7503 122.374 50.0834C131.476 47.8504 140.695 47.1022 150.016 48.0946C154.902 48.6145 159.757 49.2837 164.371 51.2479C169.359 53.3711 174.592 54.9436 179.502 57.2231C187.573 60.9693 195.451 65.1718 201.859 71.5092C206.509 76.1086 210.841 81.0264 215.375 85.7444C217.986 88.4621 220.743 91.0381 223.39 93.7216C228.965 99.3727 235.913 103.103 242.591 107.121C256.816 115.682 270.48 124.994 283.252 135.607C290.97 142.021 298.942 148.154 306.38 154.876C316.417 163.948 324.497 174.547 328.669 187.655C330.875 194.584 331.505 201.768 331.502 209.029C331.5 215.595 331.947 222.171 331.688 228.723C331.491 233.662 332.41 238.408 333.106 243.201C333.593 246.561 334.448 249.873 335.252 253.18C337.305 261.633 341.737 269.06 345.457 276.803C348.277 282.671 350.774 288.695 353.371 294.669C353.522 295.017 353.263 295.539 353.214 295.982C353.201 296.098 353.218 296.263 353.29 296.334C354.401 297.434 354.653 298.745 354.644 300.292C354.637 301.315 355.466 302.322 355.574 303.371C356.069 308.171 356.81 312.988 356.747 317.789C356.691 321.961 355.952 326.184 355.006 330.267C354.043 334.418 352.69 338.52 351.078 342.467C349.442 346.47 347.402 350.325 345.321 354.125C341.194 361.661 335.731 368.193 329.131 373.633C322.396 379.183 314.75 383.324 306.552 386.351C303.312 387.548 299.981 388.528 296.642 389.424C294.881 389.897 293.005 389.932 291.198 390.251C289.95 390.471 288.742 390.917 287.494 391.13C280.385 392.348 273.294 391.908 266.21 390.848C264.942 390.659 263.656 390.593 262.381 390.448C261.991 390.404 261.597 390.317 261.227 390.188C257.927 389.041 254.639 387.859 251.328 386.747C250.827 386.578 250.134 386.892 249.685 386.67C248.242 385.955 246.905 385 245.171 385.197C245.31 383.916 244.031 384.543 244.011 384.504C243 382.625 240.957 383.698 239.604 382.912C239.071 382.602 238.361 382.483 237.978 382.055C237.556 381.585 235.927 382.022 236.751 380.562C236.143 380.417 235.534 380.281 234.929 380.125C234.216 379.94 233.506 379.739 232.886 379.211C233.228 379.264 233.57 379.316 233.911 379.369C223.97 373.313 214.207 367.073 206.693 357.938C206.546 358.102 206.399 358.265 206.253 358.43C210.797 362.722 215.342 367.016 219.887 371.309C219.879 371.331 219.872 371.353 219.865 371.374C217.877 369.763 215.824 368.225 213.911 366.527C205.392 358.967 199.025 349.768 194.129 339.581C190.642 332.326 187.641 324.836 184.391 317.465C182.718 313.67 180.926 309.926 179.29 306.116C178.57 304.442 178.22 302.609 177.498 300.937C176.521 298.675 175.324 296.51 174.263 294.284C173.373 292.418 172.21 290.588 171.84 288.616C171.681 287.768 171.298 287.457 170.967 286.894C170.77 286.558 170.999 285.987 170.977 285.524C170.966 285.303 170.799 284.892 170.729 284.898C169.487 284.996 169.447 283.998 169.045 283.229C167.251 279.799 165.433 276.381 163.532 273.011C161.156 268.802 158.815 264.566 156.233 260.486C153.333 255.902 150.256 251.424 147.114 246.999C144.047 242.679 140.83 238.462 137.625 234.241C134.998 230.781 132.257 227.407 129.639 223.941C128.582 222.54 127.767 220.958 126.742 219.53C126.317 218.936 125.403 218.638 125.105 218.016C124.339 216.422 122.636 215.48 122.282 213.552C122.158 212.877 120.896 212.481 120.378 211.789C119.834 211.061 119.561 210.13 119.161 209.293C119.102 209.167 119.016 208.991 118.908 208.96C117.366 208.533 116.956 207.538 117.527 206.56C116.85 205.969 116.248 205.491 115.706 204.952C115.203 204.455 114.842 203.782 114.28 203.383C113.034 202.499 113.753 202.008 114.555 201.475C114.496 201.923 114.22 202.628 114.393 202.765C115.017 203.257 115.785 203.567 116.515 203.915C116.603 203.956 116.894 203.813 116.901 203.737C116.92 203.539 116.904 203.242 116.777 203.141C116.05 202.556 115.286 202.017 114.534 201.464Z" fill="#013DAD"/>
</svg>
