<svg width="265" height="99" viewBox="0 0 265 99" fill="none" xmlns="http://www.w3.org/2000/svg">
<path fill-rule="evenodd" clip-rule="evenodd" d="M70.1587 94.8663C38.6417 89.8591 21.5548 81.6534 14.6163 68.1421C13.2128 65.3509 11.8142 63.7637 9.25444 61.924C1.67575 50.552 -6.48465 35.8066 8.28696 23.9409C23.8585 11.4738 72.2451 2.2913 125.713 1.6718C133.369 1.57192 145.723 1.21008 153.117 0.812597C245.247 -4.0462 281.167 23.3577 257.865 50.7983C243.684 67.5507 220.185 77.8134 179.313 85.3147C140.392 92.4115 86.2958 88.3232 45.7802 76.6547C35.1916 73.6043 34.3784 75.6998 37.654 77.6415C49.2058 84.537 78.1959 91.0266 107.612 92.8503C133.856 94.4925 145.932 94.9258 164.819 91.6803C172.199 90.4246 177.202 93.8378 165.93 96.3596C153.973 98.946 104.404 100.306 70.1587 94.8663ZM244.044 20.9544C229.878 10.7372 200.655 6.4693 154.819 8.0261C1.64035 13.2465 21.6294 57.3699 21.6294 57.3699C21.7746 57.4014 75.5702 87.2479 169.731 80.0771C216.062 76.5962 286.464 51.5624 244.044 20.9544ZM58.9859 15.2076C74.0971 10.7404 55.9148 13.6311 33.3354 19.2548C-8.75237 29.7265 9.56485 47.0974 11.6627 50.3646C12.0097 33.7871 37.8397 21.437 58.9859 15.2076Z" fill="#013DAD"/>
</svg>
