<svg width="41" height="41" viewBox="0 0 41 41" fill="none" xmlns="http://www.w3.org/2000/svg">
<path d="M20.6001 4.3501C18.5688 4.3501 16.6808 4.85791 14.936 5.87354C13.2433 6.88916 11.8892 8.24333 10.8735 9.93604C9.85791 11.6808 9.3501 13.5688 9.3501 15.6001C9.3501 16.4074 9.50635 17.3449 9.81885 18.4126C10.0793 19.298 10.4829 20.3527 11.0298 21.5767C11.9152 23.5819 13.0741 25.8215 14.5063 28.2954C15.548 30.1183 16.7069 31.9933 17.9829 33.9204C18.634 34.91 19.1678 35.7043 19.5845 36.3032L20.6001 37.7876L23.2173 33.9204C24.4933 31.9933 25.6522 30.1183 26.6938 28.2954C28.1261 25.8215 29.285 23.5819 30.1704 21.5767C30.7173 20.3527 31.1209 19.298 31.3813 18.4126C31.6938 17.3449 31.8501 16.4074 31.8501 15.6001C31.8501 13.5688 31.3423 11.6808 30.3267 9.93604C29.311 8.24333 27.9569 6.88916 26.2642 5.87354C24.5194 4.85791 22.6313 4.3501 20.6001 4.3501ZM20.6001 6.8501C22.1886 6.8501 23.6535 7.24072 24.9946 8.02197C26.3358 8.80322 27.397 9.86442 28.1782 11.2056C28.9595 12.5467 29.3501 14.0116 29.3501 15.6001C29.3501 16.0949 29.2199 16.7915 28.9595 17.6899C28.6991 18.5884 28.3475 19.5454 27.9048 20.561C27.1496 22.2798 26.0168 24.4412 24.5063 27.0454C23.2303 29.2329 21.9543 31.2902 20.6782 33.2173L20.6001 33.2954L20.522 33.2173C19.2459 31.2902 17.9699 29.2329 16.6938 27.0454C15.1834 24.4412 14.0506 22.2798 13.2954 20.561C12.8527 19.5454 12.5011 18.5884 12.2407 17.6899C11.9803 16.7915 11.8501 16.0949 11.8501 15.6001C11.8501 14.0116 12.2407 12.5467 13.022 11.2056C13.8032 9.86442 14.8644 8.80322 16.2056 8.02197C17.5467 7.24072 19.0116 6.8501 20.6001 6.8501ZM20.6001 13.1001C19.897 13.1001 19.3045 13.341 18.8228 13.8228C18.341 14.3045 18.1001 14.897 18.1001 15.6001C18.1001 16.3032 18.341 16.8957 18.8228 17.3774C19.3045 17.8592 19.897 18.1001 20.6001 18.1001C21.3032 18.1001 21.8957 17.8592 22.3774 17.3774C22.8592 16.8957 23.1001 16.3032 23.1001 15.6001C23.1001 14.897 22.8592 14.3045 22.3774 13.8228C21.8957 13.341 21.3032 13.1001 20.6001 13.1001Z" fill="white"/>
</svg>
