<svg width="33" height="33" viewBox="0 0 33 33" fill="none" xmlns="http://www.w3.org/2000/svg">
<path d="M7.41044 0.350098C6.73336 0.350098 6.12138 0.571453 5.57451 1.01416L5.49638 1.05322L1.55107 5.11572L1.59013 5.15479C0.991173 5.70166 0.600548 6.35921 0.418256 7.12744C0.235964 7.89567 0.275027 8.64437 0.535443 9.37354V9.4126C1.23857 11.4438 2.21513 13.5272 3.46513 15.6626C5.20992 18.6053 7.25419 21.2485 9.59794 23.5923C13.4521 27.4465 18.1787 30.4673 23.7776 32.6548H23.8167C24.5719 32.9152 25.3336 32.9673 26.1018 32.811C26.8701 32.6548 27.5537 32.3162 28.1526 31.7954L32.0979 27.8501C32.6188 27.3293 32.8792 26.6847 32.8792 25.9165C32.8792 25.1483 32.6188 24.5037 32.0979 23.9829L27.0198 18.9048L26.9808 18.8267C26.4599 18.3058 25.8089 18.0454 25.0276 18.0454C24.2464 18.0454 23.5953 18.3058 23.0745 18.8267L20.5745 21.3267C18.6474 20.3892 16.9417 19.2173 15.4573 17.811C14.025 16.4569 12.8662 14.7642 11.9808 12.7329L14.4808 10.2329C15.0016 9.71208 15.262 9.07406 15.262 8.31885C15.262 7.56364 14.9886 6.92562 14.4417 6.40479L14.4808 6.36572L9.36357 1.09229L9.24638 1.01416C8.69951 0.571453 8.08753 0.350098 7.41044 0.350098ZM7.41044 2.8501C7.48857 2.8501 7.57971 2.88916 7.68388 2.96729L12.8011 8.20166C12.8271 8.30583 12.8011 8.39697 12.7229 8.4751L9.59794 11.6001L9.01201 12.147L9.28544 12.9282L9.75419 14.022C10.1969 14.9334 10.6917 15.8058 11.2386 16.6392C12.0198 17.785 12.8532 18.7876 13.7386 19.647L14.012 19.8813C14.8714 20.6626 15.8479 21.4048 16.9417 22.1079C17.7229 22.6287 18.5302 23.0975 19.3636 23.5142L21.1214 24.3345L24.8714 20.5845C24.9495 20.5063 25.0016 20.4673 25.0276 20.4673C25.0537 20.4673 25.1058 20.5063 25.1839 20.5845L30.4183 25.8188C30.4703 25.8709 30.4964 25.9035 30.4964 25.9165C30.4964 25.9295 30.4703 25.9621 30.4183 26.0142L26.512 29.9204C25.9651 30.3892 25.3271 30.5063 24.5979 30.272C19.3115 28.1886 14.8974 25.3761 11.3558 21.8345C9.16826 19.647 7.25419 17.16 5.61357 14.3735C4.44169 12.3423 3.53024 10.4022 2.87919 8.55322C2.77503 8.29281 2.76201 7.99984 2.84013 7.67432C2.91826 7.34879 3.06149 7.09489 3.26982 6.9126L7.13701 2.96729C7.24117 2.88916 7.33232 2.8501 7.41044 2.8501Z" fill="white"/>
</svg>
