<svg width="17" height="14" viewBox="0 0 17 14" fill="none" xmlns="http://www.w3.org/2000/svg">
<path d="M15.0837 3.47021C15.0837 3.62646 15.0837 3.75146 15.0837 3.90771C15.0837 8.25146 11.8025 13.2202 5.77124 13.2202C3.89624 13.2202 2.17749 12.689 0.73999 11.7515C0.98999 11.7827 1.23999 11.814 1.52124 11.814C3.05249 11.814 4.45874 11.2827 5.58374 10.4077C4.14624 10.3765 2.92749 9.43896 2.52124 8.12646C2.73999 8.15771 2.92749 8.18896 3.14624 8.18896C3.42749 8.18896 3.73999 8.12646 3.98999 8.06396C2.48999 7.75146 1.36499 6.43896 1.36499 4.84521V4.81396C1.80249 5.06396 2.33374 5.18896 2.86499 5.22021C1.95874 4.62646 1.39624 3.62646 1.39624 2.50146C1.39624 1.87646 1.55249 1.31396 1.83374 0.845215C3.45874 2.81396 5.89624 4.12646 8.61499 4.28271C8.55249 4.03271 8.52124 3.78271 8.52124 3.53271C8.52124 1.72021 9.98999 0.251465 11.8025 0.251465C12.74 0.251465 13.5837 0.626465 14.2087 1.28271C14.9275 1.12646 15.6462 0.845215 16.2712 0.470215C16.0212 1.25146 15.5212 1.87646 14.8337 2.28271C15.49 2.22021 16.1462 2.03271 16.7087 1.78271C16.2712 2.43896 15.7087 3.00146 15.0837 3.47021Z" fill="white"/>
</svg>
